{"title":"The Hole 2009 DVDrip English Klam","uid":6601572,"size":1471475574,"categoryP":"video","categoryS":"movies","magnet":"?xt=urn:btih:fff65718579d0290b43117e71e9cc51659b309d1&amp;dn=The+Hole+2009+DVDrip+English+Klam&amp;tr=udp%3A%2F%2Ftracker.openbittorrent.com%3A80&amp;tr=udp%3A%2F%2Fopen.demonii.com%3A1337&amp;tr=udp%3A%2F%2Ftracker.coppersurfer.tk%3A6969&amp;tr=udp%3A%2F%2Fexodus.desync.com%3A6969","seeders":0,"leechers":1,"uploader":"Klambake","files":-1,"time":1313233463,"description":"With: Chris Massoglia, Haley Bennett and Nathan Gamble\n\nEen alleenstaande moeder verhuist met haar twee tienerzoons vanuit de grote stad naar een klein plaatsje. In de kelder van hun huis vinden de twee broers een luik met daarachter een donker en schijnbaar bodemloos hol. Het openen van het luikt veroorzaakt grote problemen voor de jongens en hun buurmeisje.\n\nA pair of brothers stumble upon a mysterious hole in their basement that leads to the darkest corridors of their fears and nightmares. \n\n------------------ Dutch Friends ------------------\nYou can find my Friends at: http://www.Film-Test.nl \n------ They got my dutchs subs ---- and more ------\n\nGeneral:\n\nComplete name                    : The Hole\\The Hole.avi\nFormat                           : AVI\nFormat/Info                      : Audio Video Interleave\nFile size                        : 1.37 GiB\nDuration                         : 1h 28mn\nOverall bit rate                 : 2 225 Kbps\n\nVideo:\n\nFormat                           : MPEG-4 Visual\nFormat profile                   : Simple@L3\nFormat settings, BVOP            : No\nFormat settings, QPel            : No\nFormat settings, GMC             : No warppoints\nFormat settings, Matrix          : Default (H.263)\nCodec ID                         : XVID\nCodec ID/Hint                    : XviD\nDuration                         : 1h 28mn\nBit rate                         : 1 766 Kbps\nWidth                            : 652 pixels\nHeight                           : 352 pixels\nDisplay aspect ratio             : 1.852\nFrame rate                       : 25.000 fps\nColor space                      : YUV\nChroma subsampling               : 4:2:0\nBit depth                        : 8 bits\nScan type                        : Progressive\nBits/(Pixel*Frame)               : 0.308\nStream size                      : 1.09 GiB (79%)\nWriting library                  : XviD 1.1.2 (UTC 2006-11-01)\n\nAudio:\n\nFormat                           : AC-3\nFormat/Info                      : Audio Coding 3\nMode extension                   : CM (complete main)\nCodec ID                         : 2000\nDuration                         : 1h 28mn\nBit rate mode                    : Constant\nBit rate                         : 448 Kbps\nChannel(s)                       : 6 channels\nChannel positions                : Front: L C R, Side: L R, LFE\nSampling rate                    : 48.0 KHz\nBit depth                        : 16 bits\nStream size                      : 283 MiB (20%)\nAlignment                        : Aligned on interleaves\nInterleave, duration             : 32 ms (0.80 video frame)\nInterleave, preload duration     : 32 ms\n\n\n","torrent":{"xt":"urn:btih:fff65718579d0290b43117e71e9cc51659b309d1","amp;dn":"The+Hole+2009+DVDrip+English+Klam","amp;tr":["udp%3A%2F%2Ftracker.openbittorrent.com%3A80","udp%3A%2F%2Fopen.demonii.com%3A1337","udp%3A%2F%2Ftracker.coppersurfer.tk%3A6969","udp%3A%2F%2Fexodus.desync.com%3A6969"],"infoHash":"fff65718579d0290b43117e71e9cc51659b309d1","infoHashBuffer":{"type":"Buffer","data":[255,246,87,24,87,157,2,144,180,49,23,231,30,156,197,22,89,179,9,209]},"announce":[],"urlList":[]}}